<svg width="103" height="119" viewBox="0 0 103 119" fill="none" xmlns="http://www.w3.org/2000/svg">
<path d="M101 48C101 73.2749 78.973 94 51.5 94C24.027 94 2 73.2749 2 48C2 22.7251 24.027 2 51.5 2C78.973 2 101 22.7251 101 48Z" fill="white" stroke="url(#paint0_linear)" stroke-width="4"/>
<path d="M61.6709 68.4347C55.4556 65.9256 32.3309 47.0937 42.6878 53.2113C43.2404 53.5377 43.7632 53.7955 44.259 53.9905C59.3027 59.9092 74.7168 39.6774 81.6115 26.6768C81.9183 26.0981 81.7965 25.7031 81.109 25.5804C69.4538 23.4993 63.0339 36.4808 63.7424 46.7648C64.4992 57.7493 65.4148 69.946 61.6709 68.4347Z" fill="url(#paint1_radial)" fill-opacity="0.77"/>
<path d="M74.2727 58.2369C74.2727 66.5677 67.8269 85.0533 52.7165 85.0533C37.6061 85.0533 30.5187 66.5677 30.5187 58.2369C30.5187 49.9061 30.5187 55.4436 52.7165 69.9691C74.9144 84.4946 74.2727 49.9061 74.2727 58.2369Z" fill="url(#paint2_linear)"/>
<path d="M44.5749 114H42.0549L36.3489 105.378V114H33.8289V101.418H36.3489L42.0549 110.058V101.418H44.5749V114ZM56.3352 108.798C56.3352 109.158 56.3112 109.482 56.2632 109.77H48.9732C49.0332 110.49 49.2852 111.054 49.7292 111.462C50.1732 111.87 50.7192 112.074 51.3672 112.074C52.3032 112.074 52.9692 111.672 53.3652 110.868H56.0832C55.7952 111.828 55.2432 112.62 54.4272 113.244C53.6112 113.856 52.6092 114.162 51.4212 114.162C50.4612 114.162 49.5972 113.952 48.8292 113.532C48.0732 113.1 47.4792 112.494 47.0472 111.714C46.6272 110.934 46.4172 110.034 46.4172 109.014C46.4172 107.982 46.6272 107.076 47.0472 106.296C47.4672 105.516 48.0552 104.916 48.8112 104.496C49.5672 104.076 50.4372 103.866 51.4212 103.866C52.3692 103.866 53.2152 104.07 53.9592 104.478C54.7152 104.886 55.2972 105.468 55.7052 106.224C56.1252 106.968 56.3352 107.826 56.3352 108.798ZM53.7252 108.078C53.7132 107.43 53.4792 106.914 53.0232 106.53C52.5672 106.134 52.0092 105.936 51.3492 105.936C50.7252 105.936 50.1972 106.128 49.7652 106.512C49.3452 106.884 49.0872 107.406 48.9912 108.078H53.7252ZM63.6826 114L61.6306 110.904L59.8126 114H57.1126L60.3706 108.996L57.0766 104.028H59.9206L61.9546 107.106L63.7906 104.028H66.4906L63.2146 108.996L66.5266 114H63.6826ZM70.8293 106.098V110.922C70.8293 111.258 70.9073 111.504 71.0633 111.66C71.2313 111.804 71.5073 111.876 71.8913 111.876H73.0613V114H71.4773C69.3533 114 68.2913 112.968 68.2913 110.904V106.098H67.1033V104.028H68.2913V101.562H70.8293V104.028H73.0613V106.098H70.8293Z" fill="#BA00D9"/>
<defs>
<linearGradient id="paint0_linear" x1="51.5" y1="0" x2="51.5" y2="96" gradientUnits="userSpaceOnUse">
<stop stop-color="#2FEE92"/>
<stop offset="1" stop-color="#BA00D9"/>
</linearGradient>
<radialGradient id="paint1_radial" cx="0" cy="0" r="1" gradientUnits="userSpaceOnUse" gradientTransform="translate(64.6198 9.51557) rotate(155.978) scale(1.72269e-06)">
<stop stop-color="#BA00D9"/>
<stop offset="1" stop-color="#2FEE92"/>
</radialGradient>
<linearGradient id="paint2_linear" x1="52.3966" y1="54.3396" x2="52.3966" y2="85.0533" gradientUnits="userSpaceOnUse">
<stop stop-color="#2FEE92"/>
<stop offset="1" stop-color="#BA00D9" stop-opacity="0.72"/>
</linearGradient>
</defs>
</svg>
