<svg width="87" height="86" viewBox="0 0 87 86" fill="none" xmlns="http://www.w3.org/2000/svg">
<ellipse cx="43.5" cy="43" rx="43.5" ry="43" fill="white"/>
<path d="M10.7011 46.845C10.7011 45.985 10.8761 45.235 11.2261 44.595C11.5761 43.945 12.0611 43.445 12.6811 43.095C13.3011 42.735 14.0111 42.555 14.8111 42.555C15.8411 42.555 16.6911 42.815 17.3611 43.335C18.0411 43.845 18.4961 44.565 18.7261 45.495H16.4611C16.3411 45.135 16.1361 44.855 15.8461 44.655C15.5661 44.445 15.2161 44.34 14.7961 44.34C14.1961 44.34 13.7211 44.56 13.3711 45C13.0211 45.43 12.8461 46.045 12.8461 46.845C12.8461 47.635 13.0211 48.25 13.3711 48.69C13.7211 49.12 14.1961 49.335 14.7961 49.335C15.6461 49.335 16.2011 48.955 16.4611 48.195H18.7261C18.4961 49.095 18.0411 49.81 17.3611 50.34C16.6811 50.87 15.8311 51.135 14.8111 51.135C14.0111 51.135 13.3011 50.96 12.6811 50.61C12.0611 50.25 11.5761 49.75 11.2261 49.11C10.8761 48.46 10.7011 47.705 10.7011 46.845ZM23.9545 51.135C23.1545 51.135 22.4345 50.96 21.7945 50.61C21.1545 50.25 20.6495 49.745 20.2795 49.095C19.9195 48.445 19.7395 47.695 19.7395 46.845C19.7395 45.995 19.9245 45.245 20.2945 44.595C20.6745 43.945 21.1895 43.445 21.8395 43.095C22.4895 42.735 23.2145 42.555 24.0145 42.555C24.8145 42.555 25.5395 42.735 26.1895 43.095C26.8395 43.445 27.3495 43.945 27.7195 44.595C28.0995 45.245 28.2895 45.995 28.2895 46.845C28.2895 47.695 28.0945 48.445 27.7045 49.095C27.3245 49.745 26.8045 50.25 26.1445 50.61C25.4945 50.96 24.7645 51.135 23.9545 51.135ZM23.9545 49.305C24.3345 49.305 24.6895 49.215 25.0195 49.035C25.3595 48.845 25.6295 48.565 25.8295 48.195C26.0295 47.825 26.1295 47.375 26.1295 46.845C26.1295 46.055 25.9195 45.45 25.4995 45.03C25.0895 44.6 24.5845 44.385 23.9845 44.385C23.3845 44.385 22.8795 44.6 22.4695 45.03C22.0695 45.45 21.8695 46.055 21.8695 46.845C21.8695 47.635 22.0645 48.245 22.4545 48.675C22.8545 49.095 23.3545 49.305 23.9545 49.305ZM34.4349 42.57C35.4249 42.57 36.2249 42.885 36.8349 43.515C37.4449 44.135 37.7499 45.005 37.7499 46.125V51H35.6499V46.41C35.6499 45.75 35.4849 45.245 35.1549 44.895C34.8249 44.535 34.3749 44.355 33.8049 44.355C33.2249 44.355 32.7649 44.535 32.4249 44.895C32.0949 45.245 31.9299 45.75 31.9299 46.41V51H29.8299V42.69H31.9299V43.725C32.2099 43.365 32.5649 43.085 32.9949 42.885C33.4349 42.675 33.9149 42.57 34.4349 42.57ZM42.1919 44.415V48.435C42.1919 48.715 42.2569 48.92 42.3869 49.05C42.5269 49.17 42.7569 49.23 43.0769 49.23H44.0519V51H42.7319C40.9619 51 40.0769 50.14 40.0769 48.42V44.415H39.0869V42.69H40.0769V40.635H42.1919V42.69H44.0519V44.415H42.1919ZM46.6273 41.7C46.2573 41.7 45.9473 41.585 45.6973 41.355C45.4573 41.115 45.3373 40.82 45.3373 40.47C45.3373 40.12 45.4573 39.83 45.6973 39.6C45.9473 39.36 46.2573 39.24 46.6273 39.24C46.9973 39.24 47.3023 39.36 47.5423 39.6C47.7923 39.83 47.9173 40.12 47.9173 40.47C47.9173 40.82 47.7923 41.115 47.5423 41.355C47.3023 41.585 46.9973 41.7 46.6273 41.7ZM47.6623 42.69V51H45.5623V42.69H47.6623ZM54.3421 42.57C55.3321 42.57 56.1321 42.885 56.7421 43.515C57.3521 44.135 57.6571 45.005 57.6571 46.125V51H55.5571V46.41C55.5571 45.75 55.3921 45.245 55.0621 44.895C54.7321 44.535 54.2821 44.355 53.7121 44.355C53.1321 44.355 52.6721 44.535 52.3321 44.895C52.0021 45.245 51.8371 45.75 51.8371 46.41V51H49.7371V42.69H51.8371V43.725C52.1171 43.365 52.4721 43.085 52.9021 42.885C53.3421 42.675 53.8221 42.57 54.3421 42.57ZM67.4991 42.69V51H65.3841V49.95C65.1141 50.31 64.7591 50.595 64.3191 50.805C63.8891 51.005 63.4191 51.105 62.9091 51.105C62.2591 51.105 61.6841 50.97 61.1841 50.7C60.6841 50.42 60.2891 50.015 59.9991 49.485C59.7191 48.945 59.5791 48.305 59.5791 47.565V42.69H61.6791V47.265C61.6791 47.925 61.8441 48.435 62.1741 48.795C62.5041 49.145 62.9541 49.32 63.5241 49.32C64.1041 49.32 64.5591 49.145 64.8891 48.795C65.2191 48.435 65.3841 47.925 65.3841 47.265V42.69H67.4991ZM77.2961 46.665C77.2961 46.965 77.2761 47.235 77.2361 47.475H71.1611C71.2111 48.075 71.4211 48.545 71.7911 48.885C72.1611 49.225 72.6161 49.395 73.1561 49.395C73.9361 49.395 74.4911 49.06 74.8211 48.39H77.0861C76.8461 49.19 76.3861 49.85 75.7061 50.37C75.0261 50.88 74.1911 51.135 73.2011 51.135C72.4011 51.135 71.6811 50.96 71.0411 50.61C70.4111 50.25 69.9161 49.745 69.5561 49.095C69.2061 48.445 69.0311 47.695 69.0311 46.845C69.0311 45.985 69.2061 45.23 69.5561 44.58C69.9061 43.93 70.3961 43.43 71.0261 43.08C71.6561 42.73 72.3811 42.555 73.2011 42.555C73.9911 42.555 74.6961 42.725 75.3161 43.065C75.9461 43.405 76.4311 43.89 76.7711 44.52C77.1211 45.14 77.2961 45.855 77.2961 46.665ZM75.1211 46.065C75.1111 45.525 74.9161 45.095 74.5361 44.775C74.1561 44.445 73.6911 44.28 73.1411 44.28C72.6211 44.28 72.1811 44.44 71.8211 44.76C71.4711 45.07 71.2561 45.505 71.1761 46.065H75.1211Z" fill="#BA00D9"/>
</svg>
