<svg width="80" height="96" viewBox="0 0 80 96" fill="none" xmlns="http://www.w3.org/2000/svg">
<path d="M13.8608 89.676C13.8608 88.988 14.0008 88.388 14.2808 87.876C14.5608 87.356 14.9488 86.956 15.4448 86.676C15.9408 86.388 16.5088 86.244 17.1488 86.244C17.9728 86.244 18.6528 86.452 19.1888 86.868C19.7328 87.276 20.0968 87.852 20.2808 88.596H18.4688C18.3728 88.308 18.2088 88.084 17.9768 87.924C17.7528 87.756 17.4728 87.672 17.1368 87.672C16.6568 87.672 16.2768 87.848 15.9968 88.2C15.7168 88.544 15.5768 89.036 15.5768 89.676C15.5768 90.308 15.7168 90.8 15.9968 91.152C16.2768 91.496 16.6568 91.668 17.1368 91.668C17.8168 91.668 18.2608 91.364 18.4688 90.756H20.2808C20.0968 91.476 19.7328 92.048 19.1888 92.472C18.6448 92.896 17.9648 93.108 17.1488 93.108C16.5088 93.108 15.9408 92.968 15.4448 92.688C14.9488 92.4 14.5608 92 14.2808 91.488C14.0008 90.968 13.8608 90.364 13.8608 89.676ZM24.4636 93.108C23.8236 93.108 23.2476 92.968 22.7356 92.688C22.2236 92.4 21.8196 91.996 21.5236 91.476C21.2356 90.956 21.0916 90.356 21.0916 89.676C21.0916 88.996 21.2396 88.396 21.5356 87.876C21.8396 87.356 22.2516 86.956 22.7716 86.676C23.2916 86.388 23.8716 86.244 24.5116 86.244C25.1516 86.244 25.7316 86.388 26.2516 86.676C26.7716 86.956 27.1796 87.356 27.4756 87.876C27.7796 88.396 27.9316 88.996 27.9316 89.676C27.9316 90.356 27.7756 90.956 27.4636 91.476C27.1596 91.996 26.7436 92.4 26.2156 92.688C25.6956 92.968 25.1116 93.108 24.4636 93.108ZM24.4636 91.644C24.7676 91.644 25.0516 91.572 25.3156 91.428C25.5876 91.276 25.8036 91.052 25.9636 90.756C26.1236 90.46 26.2036 90.1 26.2036 89.676C26.2036 89.044 26.0356 88.56 25.6996 88.224C25.3716 87.88 24.9676 87.708 24.4876 87.708C24.0076 87.708 23.6036 87.88 23.2756 88.224C22.9556 88.56 22.7956 89.044 22.7956 89.676C22.7956 90.308 22.9516 90.796 23.2636 91.14C23.5836 91.476 23.9836 91.644 24.4636 91.644ZM32.8479 86.256C33.6399 86.256 34.2799 86.508 34.7679 87.012C35.2559 87.508 35.4999 88.204 35.4999 89.1V93H33.8199V89.328C33.8199 88.8 33.6879 88.396 33.4239 88.116C33.1599 87.828 32.7999 87.684 32.3439 87.684C31.8799 87.684 31.5119 87.828 31.2399 88.116C30.9759 88.396 30.8439 88.8 30.8439 89.328V93H29.1639V86.352H30.8439V87.18C31.0679 86.892 31.3519 86.668 31.6959 86.508C32.0479 86.34 32.4319 86.256 32.8479 86.256ZM39.0535 87.732V90.948C39.0535 91.172 39.1055 91.336 39.2095 91.44C39.3215 91.536 39.5055 91.584 39.7615 91.584H40.5415V93H39.4855C38.0695 93 37.3615 92.312 37.3615 90.936V87.732H36.5695V86.352H37.3615V84.708H39.0535V86.352H40.5415V87.732H39.0535ZM42.6019 85.56C42.3059 85.56 42.0579 85.468 41.8579 85.284C41.6659 85.092 41.5699 84.856 41.5699 84.576C41.5699 84.296 41.6659 84.064 41.8579 83.88C42.0579 83.688 42.3059 83.592 42.6019 83.592C42.8979 83.592 43.1419 83.688 43.3339 83.88C43.5339 84.064 43.6339 84.296 43.6339 84.576C43.6339 84.856 43.5339 85.092 43.3339 85.284C43.1419 85.468 42.8979 85.56 42.6019 85.56ZM43.4299 86.352V93H41.7499V86.352H43.4299ZM48.7737 86.256C49.5657 86.256 50.2057 86.508 50.6937 87.012C51.1817 87.508 51.4257 88.204 51.4257 89.1V93H49.7457V89.328C49.7457 88.8 49.6137 88.396 49.3497 88.116C49.0857 87.828 48.7257 87.684 48.2697 87.684C47.8057 87.684 47.4377 87.828 47.1657 88.116C46.9017 88.396 46.7697 88.8 46.7697 89.328V93H45.0897V86.352H46.7697V87.18C46.9937 86.892 47.2777 86.668 47.6217 86.508C47.9737 86.34 48.3577 86.256 48.7737 86.256ZM59.2993 86.352V93H57.6073V92.16C57.3913 92.448 57.1073 92.676 56.7553 92.844C56.4113 93.004 56.0353 93.084 55.6273 93.084C55.1073 93.084 54.6473 92.976 54.2473 92.76C53.8473 92.536 53.5313 92.212 53.2993 91.788C53.0753 91.356 52.9633 90.844 52.9633 90.252V86.352H54.6433V90.012C54.6433 90.54 54.7753 90.948 55.0393 91.236C55.3033 91.516 55.6633 91.656 56.1193 91.656C56.5833 91.656 56.9473 91.516 57.2113 91.236C57.4753 90.948 57.6073 90.54 57.6073 90.012V86.352H59.2993ZM67.1369 89.532C67.1369 89.772 67.1209 89.988 67.0889 90.18H62.2289C62.2689 90.66 62.4369 91.036 62.7329 91.308C63.0289 91.58 63.3929 91.716 63.8249 91.716C64.4489 91.716 64.8929 91.448 65.1569 90.912H66.9689C66.7769 91.552 66.4089 92.08 65.8649 92.496C65.3209 92.904 64.6529 93.108 63.8609 93.108C63.2209 93.108 62.6449 92.968 62.1329 92.688C61.6289 92.4 61.2329 91.996 60.9449 91.476C60.6649 90.956 60.5249 90.356 60.5249 89.676C60.5249 88.988 60.6649 88.384 60.9449 87.864C61.2249 87.344 61.6169 86.944 62.1209 86.664C62.6249 86.384 63.2049 86.244 63.8609 86.244C64.4929 86.244 65.0569 86.38 65.5529 86.652C66.0569 86.924 66.4449 87.312 66.7169 87.816C66.9969 88.312 67.1369 88.884 67.1369 89.532ZM65.3969 89.052C65.3889 88.62 65.2329 88.276 64.9289 88.02C64.6249 87.756 64.2529 87.624 63.8129 87.624C63.3969 87.624 63.0449 87.752 62.7569 88.008C62.4769 88.256 62.3049 88.604 62.2409 89.052H65.3969Z" fill="#BA00D9"/>
<path d="M78 40.5C78 61.7865 60.9635 79 40 79C19.0365 79 2 61.7865 2 40.5C2 19.2135 19.0365 2 40 2C60.9635 2 78 19.2135 78 40.5Z" fill="white" stroke="url(#paint0_linear)" stroke-width="4"/>
<path d="M47.8997 57.7418C43.0723 55.6247 25.1114 39.7353 33.1556 44.8971C33.5847 45.1724 33.9908 45.39 34.3759 45.5545C46.0603 50.5484 58.0325 33.4778 63.3875 22.5086C63.6259 22.0203 63.5313 21.687 62.9972 21.5834C53.9447 19.8275 48.9583 30.7806 49.5086 39.4578C50.0965 48.7259 50.8076 59.0169 47.8997 57.7418Z" fill="url(#paint1_radial)" fill-opacity="0.77"/>
<path d="M57.6875 49.1374C57.6875 56.1665 52.681 71.7637 40.9448 71.7637C29.2085 71.7637 23.7037 56.1665 23.7037 49.1374C23.7037 42.1083 23.7037 46.7805 40.9448 59.0364C58.1858 71.2924 57.6875 42.1083 57.6875 49.1374Z" fill="url(#paint2_linear)"/>
<defs>
<linearGradient id="paint0_linear" x1="40" y1="0" x2="40" y2="81" gradientUnits="userSpaceOnUse">
<stop stop-color="#2FEE92"/>
<stop offset="1" stop-color="#BA00D9"/>
</linearGradient>
<radialGradient id="paint1_radial" cx="0" cy="0" r="1" gradientUnits="userSpaceOnUse" gradientTransform="translate(50.1901 8.02876) rotate(154.166) scale(1.35783e-06)">
<stop stop-color="#BA00D9"/>
<stop offset="1" stop-color="#2FEE92"/>
</radialGradient>
<linearGradient id="paint2_linear" x1="40.6963" y1="45.8491" x2="40.6963" y2="71.7637" gradientUnits="userSpaceOnUse">
<stop stop-color="#2FEE92"/>
<stop offset="1" stop-color="#BA00D9" stop-opacity="0.72"/>
</linearGradient>
</defs>
</svg>
