<svg width="375" height="812" viewBox="0 0 375 812" fill="none" xmlns="http://www.w3.org/2000/svg">
<g clip-path="url(#clip0)">
<g filter="url(#filter0_d)">
<path d="M373.021 0H1.97876V807.159H373.021V0Z" fill="black"/>
<path d="M-270.295 720.411C-274.529 710.863 -271.695 699.064 -263.915 693.836L94.3038 453.33C102.326 447.944 112.515 451.608 116.881 461.45L132.782 497.291C137.016 506.836 134.182 518.639 126.402 523.863L-231.817 764.369C-239.839 769.76 -250.028 766.094 -254.394 756.249L-270.295 720.411Z" fill="#BA00D9"/>
<path d="M-315.728 910.184C-320.162 900.782 -317.578 888.892 -309.911 883.422L43.109 631.678C51.0152 626.039 61.2777 629.379 65.8504 639.084L82.5028 674.408C86.937 683.817 84.353 695.706 76.6863 701.176L-276.334 952.92C-284.24 958.554 -294.503 955.214 -299.076 945.514L-315.728 910.184Z" fill="#BA00D9"/>
<path opacity="0.77" d="M117.48 866.486C112.771 857.078 115.25 844.916 123.017 839.313L437.729 612.407C445.496 606.81 455.611 609.89 460.319 619.292L479.399 657.399C484.108 666.802 481.629 678.964 473.861 684.567L159.15 911.473C151.383 917.076 141.269 913.99 136.56 904.587L117.48 866.486Z" fill="#BA00D9"/>
<path d="M191.079 857.398C186.37 847.996 188.849 835.828 196.617 830.231L431.902 660.588C439.669 654.985 449.784 658.071 454.493 667.474L473.572 705.581C478.282 714.984 475.802 727.145 468.035 732.748L232.749 902.391C224.982 907.988 214.868 904.902 210.159 895.499L191.079 857.398Z" fill="#2FEE92"/>
<path opacity="0.61" d="M0.879069 828.161C-3.82993 818.759 -1.35069 806.591 6.41662 800.994L258.994 618.881C266.762 613.284 276.876 616.364 281.585 625.772L300.665 663.874C305.374 673.276 302.894 685.444 295.127 691.041L42.5492 873.154C34.7819 878.751 24.6678 875.665 19.9588 866.263L0.879069 828.161Z" fill="#E597FF" fill-opacity="0.97"/>
<path d="M-22.8304 623.552C-27.5394 614.149 -25.0602 601.984 -17.2929 596.384L376.572 312.405C384.339 306.805 394.453 309.889 399.162 319.293L418.242 357.396C422.951 366.801 420.472 378.964 412.704 384.564L18.8397 668.545C11.0724 674.142 0.958352 671.062 -3.75065 661.653L-22.8304 623.552Z" fill="#2FEE92" fill-opacity="0.77"/>
<path opacity="0.61" d="M-38.5609 686.691C-43.2699 677.288 -40.7906 665.126 -33.0233 659.523L323.322 402.597C331.089 396.997 341.203 400.081 345.913 409.485L364.992 447.588C369.701 456.993 367.222 469.156 359.455 474.756L3.10923 731.683C-4.65806 737.28 -14.7721 734.201 -19.4811 724.798L-38.5609 686.691Z" fill="#BA00D9"/>
<path d="M123.956 667.032C119.247 657.629 121.726 645.467 129.493 639.864L444.205 412.958C451.972 407.358 462.086 410.442 466.795 419.846L485.875 457.949C490.584 467.353 488.105 479.517 480.337 485.117L165.626 712.025C157.858 717.628 147.744 714.542 143.036 705.139L123.956 667.032Z" fill="#E597FF" fill-opacity="0.72"/>
<path opacity="0.61" d="M-38.9671 758.966C-43.6761 749.563 -41.1969 737.395 -33.4296 731.798L432.568 395.811C440.335 390.21 450.449 393.294 455.158 402.698L474.238 440.801C478.947 450.206 476.467 462.369 468.7 467.969L2.70298 803.953C-5.0643 809.556 -15.1784 806.47 -19.8873 797.067L-38.9671 758.966Z" fill="#BA00D9"/>
<path opacity="0.88" d="M-22.6148 768.02C-27.3238 758.617 -24.8446 746.455 -17.0773 740.852L25.577 710.097C33.3443 704.5 43.4583 707.579 48.1673 716.988L65.4649 751.532C70.1737 760.934 67.6946 773.096 59.927 778.699L17.2729 809.449C9.50562 815.051 -0.608375 811.966 -5.31737 802.563L-22.6148 768.02Z" fill="#2FEE92"/>
<path opacity="0.87" d="M-25.2535 871.702C-29.9625 862.293 -27.4833 850.131 -19.716 844.528L395.636 545.061C403.403 539.46 413.517 542.544 418.226 551.948L437.306 590.052C442.015 599.456 439.535 611.62 431.768 617.217L16.4166 916.689C8.64928 922.292 -1.46474 919.206 -6.17375 909.803L-25.2535 871.702Z" fill="#BA00D9"/>
<path d="M293.32 448.77C288.611 439.365 291.09 427.202 298.857 421.602L567.714 227.756C575.481 222.156 585.594 225.239 590.303 234.643L609.385 272.747C614.09 282.151 611.611 294.314 603.844 299.915L334.99 493.761C327.223 499.361 317.108 496.277 312.4 486.873L293.32 448.77Z" fill="#E597FF" fill-opacity="0.97"/>
<path d="M-94.5628 645.976C-99.2311 636.652 -96.8391 624.599 -89.1966 618.935L554.268 141.948C562.04 136.183 572.276 139.224 577.025 148.71L594.444 183.49C599.109 192.813 596.72 204.867 589.076 210.533L-54.3854 687.52C-62.1615 693.28 -72.3973 690.242 -77.1471 680.755L-94.5628 645.976Z" fill="#BA00D9"/>
<path d="M143.464 952.448C138.827 943.191 141.152 931.216 148.697 925.504L496.133 662.397C503.915 656.504 514.245 659.511 519.029 669.059L536.438 703.832C541.078 713.096 538.753 725.064 531.204 730.776L183.77 993.883C175.989 999.776 165.658 996.769 160.876 987.221L143.464 952.448Z" fill="#BA00D9"/>
<path opacity="0.88" d="M195.325 392.463C199.898 401.967 197.245 414.078 189.4 419.513L-9.05691 557.003C-16.9022 562.437 -26.9691 559.139 -31.542 549.635L-50.0597 511.148C-54.6325 501.644 -51.9798 489.533 -44.1344 484.098L154.322 346.609C162.168 341.173 172.234 344.471 176.807 353.976L195.325 392.463Z" fill="white" fill-opacity="0.87"/>
<path d="M-52.7124 547.434C-57.4211 538.03 -54.9421 525.867 -47.1748 520.266L284.385 281.21C292.153 275.61 302.267 278.693 306.975 288.098L326.055 326.201C330.764 335.605 328.285 347.769 320.518 353.369L-11.0423 592.425C-18.8096 598.025 -28.9236 594.942 -33.6326 585.538L-52.7124 547.434Z" fill="#E597FF" fill-opacity="0.5"/>
<path opacity="0.88" d="M483.501 190.424C488.074 199.928 485.421 212.039 477.575 217.474L279.119 354.963C271.273 360.399 261.207 357.1 256.634 347.596L238.116 309.109C233.543 299.604 236.196 287.494 244.041 282.059L442.498 144.569C450.343 139.134 460.41 142.433 464.983 151.937L483.501 190.424Z" fill="white"/>
<path opacity="0.61" d="M237.85 219.541C242.422 229.045 239.77 241.156 231.924 246.591L-23.2718 423.389C-31.1171 428.824 -41.184 425.526 -45.7568 416.021L-64.2746 377.535C-68.8473 368.03 -66.1946 355.92 -58.3493 350.485L196.847 173.686C204.692 168.251 214.759 171.549 219.332 181.054L237.85 219.541Z" fill="#E597FF" fill-opacity="0.97"/>
<path d="M196.191 6.51663C200.764 16.0207 198.111 28.1314 190.265 33.5666L-83.5293 223.25C-91.3746 228.685 -101.442 225.386 -106.014 215.883L-124.532 177.395C-129.105 167.891 -126.452 155.781 -118.607 150.345L155.188 -39.3379C163.033 -44.7731 173.1 -41.4746 177.673 -31.9704L196.191 6.51663Z" fill="#2FEE92"/>
<path opacity="0.61" d="M502.638 111.421C507.214 120.925 504.563 133.036 496.716 138.471L178.743 358.76C170.897 364.195 160.831 360.897 156.258 351.393L137.74 312.906C133.167 303.402 135.82 291.291 143.665 285.855L461.638 65.5668C469.483 60.1315 479.55 63.4297 484.122 72.9341L502.638 111.421Z" fill="#BA00D9"/>
<path d="M279.286 26.6754C283.859 36.1796 281.206 48.2902 273.361 53.7254L-44.6109 274.014C-52.456 279.45 -62.5231 276.151 -67.0958 266.647L-87.8356 223.543C-92.4083 214.038 -89.7556 201.928 -81.9103 196.492L236.062 -23.7966C243.907 -29.2318 253.974 -25.9333 258.547 -16.4291L279.286 26.6754Z" fill="white" fill-opacity="0.87"/>
<path d="M398.327 37.7471C402.9 47.2512 400.247 59.3619 392.402 64.7969L14.6878 326.475C6.84252 331.91 -3.22439 328.612 -7.79727 319.108L-26.315 280.621C-30.8879 271.116 -28.2351 259.006 -20.3897 253.571L357.325 -8.10745C365.17 -13.5426 375.237 -10.2441 379.81 -0.739946L398.327 37.7471Z" fill="#C802CC" fill-opacity="0.64"/>
<path opacity="0.72" d="M502.465 22.0581C507.037 31.5623 504.385 43.6729 496.538 49.1081L241.343 225.906C233.498 231.341 223.431 228.043 218.858 218.539L200.34 180.052C195.767 170.548 198.42 158.437 206.265 153.002L461.462 -23.7964C469.307 -29.2316 479.374 -25.933 483.947 -16.4289L502.465 22.0581Z" fill="#BA00D9"/>
<path opacity="0.68" d="M417.464 153.68C422.037 163.183 419.384 175.295 411.539 180.729L-52.1499 501.97C-59.9952 507.405 -70.0618 504.106 -74.6345 494.602L-93.1525 456.115C-97.7252 446.611 -95.0725 434.5 -87.2272 429.065L376.461 107.825C384.307 102.39 394.373 105.688 398.946 115.193L417.464 153.68Z" fill="#BA00D9"/>
<path d="M489.828 -218.892C494.401 -209.388 491.748 -197.277 483.903 -191.842L165.931 28.4472C158.086 33.8824 148.018 30.5838 143.446 21.0797L123.709 -19.9404C119.136 -29.4445 121.789 -41.5553 129.635 -46.9904L447.606 -267.279C455.452 -272.715 465.519 -269.416 470.091 -259.912L489.828 -218.892Z" fill="#BA00D9"/>
<path d="M238.48 -99.8397C243.053 -90.3353 240.4 -78.2248 232.555 -72.7895L-72.0581 138.244C-79.9034 143.679 -89.97 140.38 -94.5433 130.877L-113.061 92.3896C-117.634 82.8852 -114.981 70.7748 -107.135 65.3394L197.477 -145.694C205.323 -151.129 215.389 -147.831 219.962 -138.327L238.48 -99.8397Z" fill="#C802CC" fill-opacity="0.64"/>
<path opacity="0.88" d="M365.721 563.689C361.012 554.285 363.491 542.122 371.259 536.521L424.081 498.436C431.848 492.836 441.962 495.92 446.671 505.324L463.969 539.868C468.678 549.272 466.198 561.436 458.431 567.036L405.609 605.121C397.842 610.718 387.727 607.639 383.018 598.233L365.721 563.689Z" fill="white"/>
<path opacity="0.9" d="M444.314 -36.2226C448.888 -26.7185 446.234 -14.6078 438.389 -9.17264L183.113 167.681C175.268 173.116 165.201 169.817 160.628 160.314L142.11 121.827C137.537 112.322 140.19 100.212 148.035 94.7764L403.312 -82.0774C411.157 -87.5121 421.224 -84.2139 425.797 -74.7095L444.314 -36.2226Z" fill="#2FEE92"/>
<path opacity="0.82" d="M133.473 -97.0933C138.046 -87.5889 135.393 -75.4785 127.548 -70.0432L-98.6396 86.6583C-106.485 92.093 -116.552 88.7948 -121.125 79.2904L-139.643 40.8035C-144.215 31.2994 -141.563 19.1886 -133.717 13.7535L92.4704 -142.948C100.316 -148.383 110.382 -145.084 114.956 -135.58L133.473 -97.0933Z" fill="#2FEE92"/>
<path d="M525.128 -155.374C529.705 -145.869 527.048 -133.759 519.207 -128.324L264.008 48.4746C256.163 53.9098 246.096 50.6112 241.524 41.1071L223.006 2.62008C218.433 -6.88404 221.086 -18.9948 228.931 -24.4299L484.127 -201.228C491.973 -206.664 502.04 -203.365 506.611 -193.861L525.128 -155.374Z" fill="#E597FF" fill-opacity="0.97"/>
</g>
<g filter="url(#filter1_d)">
<ellipse cx="192" cy="288.457" rx="121" ry="126.457" fill="white"/>
<path d="M259.623 282.664C259.623 315.87 229.63 343.393 191.846 343.393C154.063 343.393 124.07 315.87 124.07 282.664C124.07 249.458 154.063 221.935 191.846 221.935C229.63 221.935 259.623 249.458 259.623 282.664Z" stroke="black" stroke-width="7"/>
<path d="M259.623 282.664C259.623 315.87 229.63 343.393 191.846 343.393C154.063 343.393 124.07 315.87 124.07 282.664C124.07 249.458 154.063 221.935 191.846 221.935C229.63 221.935 259.623 249.458 259.623 282.664Z" stroke="url(#paint0_linear)" stroke-width="7"/>
<path d="M211.802 283.722C211.802 294.388 204.032 318.056 185.817 318.056C167.603 318.056 159.06 294.388 159.06 283.722C159.06 273.056 159.06 280.145 185.817 298.743C212.575 317.341 211.802 273.056 211.802 283.722Z" fill="url(#paint1_linear)"/>
<path d="M196.322 299.134C188.83 295.922 160.955 271.811 173.439 279.643C177.847 282.408 180.689 281.328 182.876 278.587C191.456 267.83 202.515 259.65 213.895 251.587C220.715 246.755 224.315 242.276 214.597 245.083C204.237 248.076 197.93 256.646 198.53 266.794C199.417 281.774 201.335 301.284 196.322 299.134Z" fill="url(#paint2_radial)" fill-opacity="0.77"/>
<path d="M161.063 377.195L153.108 368.241V377.195H149.741V349.815H153.108V365.91L160.915 356.919H165.614L156.068 367.02L165.651 377.195H161.063ZM172.002 353.626C171.361 353.626 170.818 353.404 170.374 352.96C169.93 352.516 169.708 351.974 169.708 351.332C169.708 350.691 169.93 350.148 170.374 349.704C170.818 349.26 171.361 349.038 172.002 349.038C172.619 349.038 173.137 349.26 173.556 349.704C174 350.148 174.222 350.691 174.222 351.332C174.222 351.974 174 352.516 173.556 352.96C173.137 353.404 172.619 353.626 172.002 353.626ZM173.63 356.919V377.195H170.263V356.919H173.63ZM189.692 377.528C187.792 377.528 186.066 377.097 184.512 376.233C182.982 375.37 181.774 374.149 180.886 372.57C180.022 370.967 179.591 369.117 179.591 367.02C179.591 364.948 180.035 363.123 180.923 361.544C181.835 359.941 183.069 358.72 184.623 357.881C186.177 357.018 187.916 356.586 189.84 356.586C191.764 356.586 193.503 357.018 195.057 357.881C196.611 358.72 197.832 359.929 198.72 361.507C199.632 363.086 200.089 364.924 200.089 367.02C200.089 369.117 199.62 370.967 198.683 372.57C197.77 374.149 196.524 375.37 194.946 376.233C193.367 377.097 191.616 377.528 189.692 377.528ZM189.692 374.568C190.9 374.568 192.035 374.285 193.096 373.717C194.156 373.15 195.007 372.299 195.649 371.164C196.315 370.03 196.648 368.648 196.648 367.02C196.648 365.392 196.327 364.011 195.686 362.876C195.044 361.742 194.206 360.903 193.17 360.36C192.134 359.793 191.011 359.509 189.803 359.509C188.569 359.509 187.435 359.793 186.399 360.36C185.387 360.903 184.573 361.742 183.957 362.876C183.34 364.011 183.032 365.392 183.032 367.02C183.032 368.673 183.328 370.067 183.92 371.201C184.536 372.336 185.35 373.187 186.362 373.754C187.373 374.297 188.483 374.568 189.692 374.568ZM210.102 359.694V371.645C210.102 372.632 210.312 373.335 210.732 373.754C211.151 374.149 211.879 374.346 212.914 374.346H215.394V377.195H212.36C210.485 377.195 209.079 376.764 208.141 375.9C207.204 375.037 206.735 373.619 206.735 371.645V359.694H204.108V356.919H206.735V351.813H210.102V356.919H215.394V359.694H210.102ZM219.695 366.983C219.695 364.911 220.114 363.098 220.953 361.544C221.792 359.966 222.939 358.745 224.394 357.881C225.874 357.018 227.514 356.586 229.315 356.586C231.091 356.586 232.633 356.969 233.94 357.733C235.247 358.498 236.222 359.46 236.863 360.619V356.919H240.267V377.195H236.863V373.421C236.197 374.605 235.198 375.592 233.866 376.381C232.559 377.146 231.029 377.528 229.278 377.528C227.477 377.528 225.849 377.084 224.394 376.196C222.939 375.308 221.792 374.063 220.953 372.459C220.114 370.856 219.695 369.031 219.695 366.983ZM236.863 367.02C236.863 365.491 236.555 364.159 235.938 363.024C235.321 361.89 234.483 361.026 233.422 360.434C232.386 359.818 231.239 359.509 229.981 359.509C228.723 359.509 227.576 359.805 226.54 360.397C225.504 360.989 224.678 361.853 224.061 362.987C223.444 364.122 223.136 365.454 223.136 366.983C223.136 368.537 223.444 369.894 224.061 371.053C224.678 372.188 225.504 373.064 226.54 373.68C227.576 374.272 228.723 374.568 229.981 374.568C231.239 374.568 232.386 374.272 233.422 373.68C234.483 373.064 235.321 372.188 235.938 371.053C236.555 369.894 236.863 368.55 236.863 367.02Z" fill="#BA00D9" fill-opacity="0.72"/>
</g>
</g>
<defs>
<filter id="filter0_d" x="-321.895" y="-269.898" width="937.662" height="1274.8" filterUnits="userSpaceOnUse" color-interpolation-filters="sRGB">
<feFlood flood-opacity="0" result="BackgroundImageFix"/>
<feColorMatrix in="SourceAlpha" type="matrix" values="0 0 0 0 0 0 0 0 0 0 0 0 0 0 0 0 0 0 127 0"/>
<feOffset dy="4"/>
<feGaussianBlur stdDeviation="2"/>
<feColorMatrix type="matrix" values="0 0 0 0 0 0 0 0 0 0 0 0 0 0 0 0 0 0 0.25 0"/>
<feBlend mode="normal" in2="BackgroundImageFix" result="effect1_dropShadow"/>
<feBlend mode="normal" in="SourceGraphic" in2="effect1_dropShadow" result="shape"/>
</filter>
<filter id="filter1_d" x="67" y="162" width="250" height="260.913" filterUnits="userSpaceOnUse" color-interpolation-filters="sRGB">
<feFlood flood-opacity="0" result="BackgroundImageFix"/>
<feColorMatrix in="SourceAlpha" type="matrix" values="0 0 0 0 0 0 0 0 0 0 0 0 0 0 0 0 0 0 127 0"/>
<feOffset dy="4"/>
<feGaussianBlur stdDeviation="2"/>
<feColorMatrix type="matrix" values="0 0 0 0 0 0 0 0 0 0 0 0 0 0 0 0 0 0 0.25 0"/>
<feBlend mode="normal" in2="BackgroundImageFix" result="effect1_dropShadow"/>
<feBlend mode="normal" in="SourceGraphic" in2="effect1_dropShadow" result="shape"/>
</filter>
<linearGradient id="paint0_linear" x1="191.846" y1="218.435" x2="191.846" y2="346.893" gradientUnits="userSpaceOnUse">
<stop stop-color="#2FEE92"/>
<stop offset="1" stop-color="#BA00D9"/>
</linearGradient>
<linearGradient id="paint1_linear" x1="185.432" y1="278.732" x2="185.432" y2="318.056" gradientUnits="userSpaceOnUse">
<stop stop-color="#2FEE92"/>
<stop offset="1" stop-color="#BA00D9" stop-opacity="0.72"/>
</linearGradient>
<radialGradient id="paint2_radial" cx="0" cy="0" r="1" gradientUnits="userSpaceOnUse" gradientTransform="translate(203.251 232.949) rotate(154.668) scale(2.09851e-06)">
<stop stop-color="#BA00D9"/>
<stop offset="1" stop-color="#2FEE92"/>
</radialGradient>
<clipPath id="clip0">
<rect width="375" height="812" fill="white"/>
</clipPath>
</defs>
</svg>
