<svg width="136" height="136" viewBox="0 0 136 136" fill="none" xmlns="http://www.w3.org/2000/svg">
<g filter="url(#filter0_d)">
<circle cx="68" cy="65" r="59" fill="white"/>
<path d="M29.5148 77.217C28.0888 77.217 26.8075 76.969 25.6708 76.473C24.5548 75.9563 23.6765 75.2537 23.0358 74.365C22.3952 73.4557 22.0645 72.412 22.0438 71.234H25.0508C25.1542 72.2467 25.5675 73.1043 26.2908 73.807C27.0348 74.489 28.1095 74.83 29.5148 74.83C30.8582 74.83 31.9122 74.4993 32.6768 73.838C33.4622 73.156 33.8548 72.288 33.8548 71.234C33.8548 70.4073 33.6275 69.7357 33.1728 69.219C32.7182 68.7023 32.1498 68.3097 31.4678 68.041C30.7858 67.7723 29.8662 67.483 28.7088 67.173C27.2828 66.801 26.1358 66.429 25.2678 66.057C24.4205 65.685 23.6868 65.1063 23.0668 64.321C22.4675 63.515 22.1678 62.4403 22.1678 61.097C22.1678 59.919 22.4675 58.8753 23.0668 57.966C23.6662 57.0567 24.5032 56.354 25.5778 55.858C26.6732 55.362 27.9235 55.114 29.3288 55.114C31.3542 55.114 33.0075 55.6203 34.2888 56.633C35.5908 57.6457 36.3245 58.989 36.4898 60.663H33.3898C33.2865 59.8363 32.8525 59.113 32.0878 58.493C31.3232 57.8523 30.3105 57.532 29.0498 57.532C27.8718 57.532 26.9108 57.842 26.1668 58.462C25.4228 59.0613 25.0508 59.9087 25.0508 61.004C25.0508 61.7893 25.2678 62.43 25.7018 62.926C26.1565 63.422 26.7042 63.8043 27.3448 64.073C28.0062 64.321 28.9258 64.6103 30.1038 64.941C31.5298 65.3337 32.6768 65.7263 33.5448 66.119C34.4128 66.491 35.1568 67.08 35.7768 67.886C36.3968 68.6713 36.7068 69.746 36.7068 71.11C36.7068 72.164 36.4278 73.156 35.8698 74.086C35.3118 75.016 34.4852 75.7703 33.3898 76.349C32.2945 76.9277 31.0028 77.217 29.5148 77.217ZM55.3972 55.393V57.687H49.5072V77H46.6862V57.687H40.7652V55.393H55.3972ZM72.8817 72.195H63.4577L61.7217 77H58.7457L66.5577 55.517H69.8127L77.5937 77H74.6177L72.8817 72.195ZM72.0757 69.901L68.1697 58.989L64.2637 69.901H72.0757ZM93.6153 77L88.4693 68.165H85.0593V77H82.2383V55.393H89.2133C90.846 55.393 92.2203 55.672 93.3363 56.23C94.473 56.788 95.3203 57.5423 95.8783 58.493C96.4363 59.4437 96.7153 60.5287 96.7153 61.748C96.7153 63.236 96.2813 64.5483 95.4133 65.685C94.566 66.8217 93.2847 67.576 91.5693 67.948L96.9943 77H93.6153ZM85.0593 65.902H89.2133C90.7427 65.902 91.8897 65.53 92.6543 64.786C93.419 64.0213 93.8013 63.0087 93.8013 61.748C93.8013 60.4667 93.419 59.4747 92.6543 58.772C91.9103 58.0693 90.7633 57.718 89.2133 57.718H85.0593V65.902ZM115.638 55.393V57.687H109.748V77H106.927V57.687H101.006V55.393H115.638Z" fill="#BA00D9"/>
</g>
<defs>
<filter id="filter0_d" x="0" y="0" width="136" height="136" filterUnits="userSpaceOnUse" color-interpolation-filters="sRGB">
<feFlood flood-opacity="0" result="BackgroundImageFix"/>
<feColorMatrix in="SourceAlpha" type="matrix" values="0 0 0 0 0 0 0 0 0 0 0 0 0 0 0 0 0 0 127 0"/>
<feOffset dy="3"/>
<feGaussianBlur stdDeviation="4.5"/>
<feColorMatrix type="matrix" values="0 0 0 0 0 0 0 0 0 0 0 0 0 0 0 0 0 0 0.25 0"/>
<feBlend mode="normal" in2="BackgroundImageFix" result="effect1_dropShadow"/>
<feBlend mode="normal" in="SourceGraphic" in2="effect1_dropShadow" result="shape"/>
</filter>
</defs>
</svg>
