<svg width="1048" height="1139" viewBox="0 0 1048 1139" fill="none" xmlns="http://www.w3.org/2000/svg">
<g filter="url(#filter0_d)">
<path d="M57.249 883.825C52.5121 875.304 55.6827 864.773 64.3861 860.108L465.121 645.462C474.096 640.655 485.493 643.925 490.378 652.709L508.166 684.696C512.903 693.215 509.732 703.749 501.029 708.411L100.294 923.056C91.3193 927.868 79.9217 924.595 75.0371 915.81L57.249 883.825Z" fill="#BA00D9"/>
<path d="M6.42376 1053.19C1.46327 1044.8 4.35387 1034.19 12.9305 1029.31L407.85 804.633C416.694 799.6 428.175 802.581 433.29 811.243L451.919 842.768C456.88 851.165 453.989 861.776 445.412 866.658L50.4931 1091.33C41.6485 1096.36 30.168 1093.38 25.0525 1084.72L6.42376 1053.19Z" fill="#BA00D9"/>
<path opacity="0.77" d="M491.047 1014.19C485.78 1005.8 488.553 994.942 497.242 989.941L849.306 787.433C857.995 782.438 869.31 785.187 874.577 793.579L895.922 827.588C901.19 835.98 898.416 846.834 889.727 851.835L537.663 1054.34C528.974 1059.34 517.66 1056.59 512.392 1048.2L491.047 1014.19Z" fill="#BA00D9"/>
<path d="M573.382 1006.08C568.114 997.691 570.888 986.831 579.577 981.836L842.788 830.434C851.477 825.434 862.791 828.188 868.06 836.58L889.403 870.589C894.672 878.981 891.898 889.835 883.209 894.836L619.998 1046.24C611.309 1051.23 599.994 1048.48 594.726 1040.09L573.382 1006.08Z" fill="#2FEE92"/>
<path opacity="0.61" d="M360.608 979.989C355.34 971.597 358.113 960.738 366.802 955.743L649.358 793.212C658.047 788.217 669.362 790.965 674.629 799.362L695.974 833.366C701.242 841.758 698.468 852.618 689.779 857.613L407.223 1020.14C398.534 1025.14 387.22 1022.39 381.952 1013.99L360.608 979.989Z" fill="#E597FF" fill-opacity="0.97"/>
<path d="M334.084 797.381C328.816 788.989 331.59 778.132 340.279 773.134L780.89 519.69C789.579 514.693 800.894 517.444 806.162 525.837L827.506 559.844C832.774 568.237 830 579.092 821.311 584.09L380.7 837.535C372.011 842.531 360.696 839.782 355.428 831.385L334.084 797.381Z" fill="black" fill-opacity="0.77"/>
<path opacity="0.61" d="M316.487 853.73C311.219 845.339 313.992 834.484 322.682 829.484L721.32 600.184C730.009 595.186 741.324 597.938 746.592 606.332L767.936 640.337C773.204 648.731 770.431 659.586 761.742 664.584L363.103 893.885C354.413 898.88 343.099 896.132 337.831 887.74L316.487 853.73Z" fill="#25AEE9"/>
<path d="M498.292 836.186C493.024 827.794 495.798 816.94 504.487 811.939L856.55 609.431C865.24 604.433 876.554 607.185 881.822 615.578L903.166 649.585C908.434 657.977 905.661 668.833 896.971 673.831L544.908 876.34C536.219 881.341 524.904 878.587 519.636 870.195L498.292 836.186Z" fill="#E597FF" fill-opacity="0.72"/>
<path opacity="0.61" d="M316.032 918.234C310.764 909.842 313.538 898.983 322.227 893.988L843.532 594.127C852.221 589.129 863.536 591.881 868.804 600.274L890.148 634.28C895.416 642.674 892.642 653.529 883.953 658.527L362.648 958.383C353.959 963.384 342.644 960.63 337.377 952.238L316.032 918.234Z" fill="#BA00D9"/>
<path opacity="0.88" d="M334.326 926.314C329.058 917.922 331.831 907.068 340.52 902.068L388.237 874.619C396.926 869.624 408.241 872.373 413.508 880.77L432.859 911.599C438.127 919.991 435.353 930.845 426.664 935.845L378.947 963.288C370.258 968.289 358.944 965.535 353.676 957.143L334.326 926.314Z" fill="#2FEE92"/>
<path opacity="0.87" d="M331.374 1018.85C326.106 1010.45 328.879 999.597 337.568 994.596L802.217 727.329C810.906 722.331 822.22 725.083 827.488 733.476L848.832 767.483C854.101 775.875 851.327 786.732 842.638 791.727L377.989 1059C369.3 1064 357.986 1061.24 352.718 1052.85L331.374 1018.85Z" fill="#BA00D9"/>
<path d="M687.757 641.392C682.489 632.999 685.263 622.143 693.952 617.145L994.719 444.143C1003.41 439.145 1014.72 441.897 1019.99 450.29L1041.34 484.296C1046.6 492.689 1043.83 503.545 1035.14 508.543L734.373 681.545C725.684 686.543 714.369 683.791 709.102 675.398L687.757 641.392Z" fill="#3383A5" fill-opacity="0.97"/>
<path d="M253.838 817.393C248.616 809.072 251.292 798.315 259.841 793.26L979.676 367.561C988.371 362.417 999.821 365.131 1005.13 373.596L1024.62 404.637C1029.84 412.958 1027.17 423.716 1018.62 428.772L298.784 854.47C290.085 859.611 278.634 856.9 273.321 848.433L253.838 817.393Z" fill="#68CDF9"/>
<path d="M520.115 1090.91C514.928 1082.65 517.529 1071.96 525.97 1066.87L914.641 832.049C923.347 826.789 934.903 829.473 940.255 837.994L959.73 869.029C964.921 877.296 962.32 887.977 953.875 893.075L565.206 1127.89C556.501 1133.15 544.944 1130.47 539.595 1121.95L520.115 1090.91Z" fill="#BA00D9"/>
<path opacity="0.88" d="M578.132 591.14C583.248 599.622 580.28 610.43 571.503 615.281L349.493 737.987C340.716 742.837 329.454 739.894 324.339 731.411L303.623 697.063C298.508 688.581 301.475 677.772 310.252 672.922L532.263 550.216C541.039 545.365 552.3 548.309 557.416 556.791L578.132 591.14Z" fill="white" fill-opacity="0.87"/>
<path d="M300.656 729.448C295.388 721.054 298.161 710.199 306.85 705.201L677.762 491.85C686.451 486.851 697.766 489.603 703.034 497.997L724.378 532.003C729.646 540.396 726.873 551.251 718.183 556.249L347.271 769.601C338.582 774.599 327.268 771.847 322 763.454L300.656 729.448Z" fill="#3383A5" fill-opacity="0.9"/>
<path opacity="0.61" d="M625.704 436.811C630.819 445.293 627.852 456.102 619.075 460.953L333.591 618.741C324.814 623.591 313.552 620.647 308.437 612.165L287.721 577.817C282.606 569.334 285.573 558.526 294.35 553.675L579.835 395.887C588.611 391.037 599.872 393.98 604.988 402.463L625.704 436.811Z" fill="#25AEE9"/>
<path d="M579.1 246.693C584.216 255.175 581.248 265.983 572.472 270.834L266.181 440.121C257.405 444.972 246.143 442.028 241.028 433.546L220.312 399.198C215.196 390.715 218.164 379.907 226.94 375.056L533.231 205.769C542.008 200.918 553.269 203.862 558.385 212.344L579.1 246.693Z" fill="#2FEE92"/>
<path d="M672.058 264.684C677.174 273.166 674.206 283.975 665.43 288.825L309.719 485.427C300.942 490.278 289.68 487.334 284.565 478.852L261.364 440.383C256.248 431.9 259.216 421.092 267.992 416.241L623.704 219.639C632.48 214.788 643.741 217.732 648.857 226.214L672.058 264.684Z" fill="white" fill-opacity="0.87"/>
<path d="M805.228 274.565C810.343 283.047 807.376 293.856 798.599 298.706L376.055 532.247C367.279 537.098 356.017 534.154 350.902 525.672L330.186 491.323C325.071 482.841 328.038 472.033 336.815 467.182L759.359 233.641C768.135 228.79 779.397 231.734 784.513 240.216L805.228 274.565Z" fill="#3383A5" fill-opacity="0.17"/>
<path opacity="0.72" d="M921.725 260.563C926.839 269.045 923.873 279.854 915.095 284.704L629.612 442.492C620.835 447.343 609.573 444.399 604.458 435.917L583.742 401.568C578.626 393.086 581.594 382.278 590.37 377.427L875.855 219.639C884.632 214.788 895.893 217.732 901.009 226.214L921.725 260.563Z" fill="#3383A5"/>
<path opacity="0.68" d="M826.635 378.032C831.751 386.514 828.783 397.323 820.007 402.173L301.285 688.872C292.508 693.722 281.247 690.778 276.132 682.296L255.416 647.948C250.3 639.465 253.268 628.657 262.044 623.806L780.766 337.108C789.543 332.257 800.804 335.201 805.92 343.683L826.635 378.032Z" fill="#3383A5" fill-opacity="0.97"/>
<path d="M907.588 45.5214C912.704 54.0038 909.736 64.8121 900.96 69.663L545.249 266.265C536.473 271.116 525.211 268.172 520.095 259.69L498.016 223.081C492.9 214.598 495.868 203.79 504.645 198.939L860.356 2.33711C869.132 -2.51377 880.394 0.430343 885.509 8.91222L907.588 45.5214Z" fill="#BA00D9"/>
<path d="M626.409 151.773C631.524 160.255 628.557 171.063 619.78 175.914L279.014 364.256C270.238 369.107 258.976 366.163 253.86 357.681L233.145 323.332C228.029 314.85 230.997 304.041 239.773 299.191L580.54 110.849C589.316 105.998 600.578 108.942 605.693 117.424L626.409 151.773Z" fill="#C802CC" fill-opacity="0.64"/>
<path opacity="0.88" d="M768.751 743.955C763.484 735.562 766.257 724.706 774.947 719.708L834.038 685.718C842.727 680.72 854.041 683.472 859.31 691.865L878.66 722.695C883.928 731.088 881.154 741.943 872.465 746.941L813.373 780.932C804.684 785.927 793.37 783.178 788.102 774.784L768.751 743.955Z" fill="white"/>
<path opacity="0.9" d="M856.673 208.549C861.789 217.031 858.821 227.84 850.045 232.691L564.471 390.528C555.694 395.379 544.432 392.435 539.317 383.953L518.601 349.604C513.486 341.122 516.453 330.313 525.23 325.462L810.804 167.625C819.58 162.775 830.842 165.718 835.958 174.201L856.673 208.549Z" fill="#2FEE92"/>
<path opacity="0.82" d="M508.939 154.224C514.055 162.706 511.087 173.514 502.31 178.365L249.278 318.217C240.501 323.067 229.239 320.124 224.124 311.641L203.408 277.293C198.293 268.811 201.26 258.002 210.037 253.151L463.07 113.3C471.846 108.449 483.108 111.393 488.224 119.875L508.939 154.224Z" fill="#2FEE92"/>
<path d="M947.078 102.21C952.198 110.692 949.226 121.5 940.454 126.351L654.967 284.139C646.19 288.99 634.929 286.046 629.814 277.564L609.098 243.215C603.982 234.733 606.95 223.924 615.726 219.074L901.211 61.2858C909.987 56.435 921.249 59.3791 926.363 67.861L947.078 102.21Z" fill="#E597FF" fill-opacity="0.97"/>
<path opacity="0.88" d="M900.51 410.825C905.626 419.307 902.658 430.116 893.881 434.967L671.871 557.672C663.094 562.523 651.833 559.579 646.717 551.097L626.001 516.748C620.886 508.266 623.854 497.458 632.63 492.607L854.641 369.901C863.417 365.05 874.679 367.994 879.795 376.476L900.51 410.825Z" fill="white"/>
<path opacity="0.61" d="M921.919 340.317C927.038 348.799 924.072 359.608 915.295 364.459L559.582 561.061C550.805 565.912 539.544 562.968 534.428 554.486L513.712 520.137C508.597 511.655 511.565 500.846 520.341 495.995L876.052 299.394C884.829 294.543 896.09 297.486 901.206 305.969L921.919 340.317Z" fill="#82DAFF"/>
</g>
<defs>
<filter id="filter0_d" x="0" y="0" width="1048" height="1138.59" filterUnits="userSpaceOnUse" color-interpolation-filters="sRGB">
<feFlood flood-opacity="0" result="BackgroundImageFix"/>
<feColorMatrix in="SourceAlpha" type="matrix" values="0 0 0 0 0 0 0 0 0 0 0 0 0 0 0 0 0 0 127 0"/>
<feOffset dy="4"/>
<feGaussianBlur stdDeviation="2"/>
<feColorMatrix type="matrix" values="0 0 0 0 0 0 0 0 0 0 0 0 0 0 0 0 0 0 0.25 0"/>
<feBlend mode="normal" in2="BackgroundImageFix" result="effect1_dropShadow"/>
<feBlend mode="normal" in="SourceGraphic" in2="effect1_dropShadow" result="shape"/>
</filter>
</defs>
</svg>
