<svg width="366" height="407" viewBox="0 0 366 407" fill="none" xmlns="http://www.w3.org/2000/svg">
<path d="M300.786 19.1516C305.08 25.4911 302.992 33.3709 296.121 36.7516L56.7426 154.542C49.8722 157.923 40.8213 155.525 36.5269 149.185V149.185C32.2324 142.846 34.3206 134.966 41.191 131.585L280.57 13.7942C287.44 10.4135 296.491 12.8121 300.786 19.1516V19.1516Z" fill="#2FEE92"/>
<path d="M318.165 34.9666C322.46 41.3061 320.372 49.1859 313.501 52.5666L212.644 102.195C205.774 105.576 196.723 103.177 192.429 96.8376V96.8376C188.134 90.4981 190.222 82.6183 197.093 79.2376L297.95 29.6092C304.82 26.2285 313.871 28.6271 318.165 34.9666V34.9666Z" fill="#E597FF" fill-opacity="0.97"/>
<path opacity="0.77" d="M143.947 366.116C139.523 359.841 141.477 351.918 148.31 348.418L275.562 283.252C282.395 279.753 291.521 282.002 295.944 288.277V288.277C300.368 294.552 298.415 302.475 291.581 305.974L164.329 371.141C157.496 374.64 148.371 372.39 143.947 366.116V366.116Z" fill="#BA00D9"/>
<path d="M176.577 363.255C172.154 356.98 174.107 349.057 180.94 345.557L272.979 298.424C279.812 294.924 288.938 297.174 293.361 303.449V303.449C297.785 309.723 295.832 317.647 288.998 321.146L196.96 368.28C190.126 371.779 181.001 369.529 176.577 363.255V363.255Z" fill="#2FEE92"/>
<path opacity="0.61" d="M92.2524 354.048C87.8288 347.773 89.7822 339.85 96.6155 336.351L196.32 285.291C203.154 281.792 212.279 284.042 216.703 290.316V290.316C221.126 296.591 219.173 304.514 212.34 308.014L112.635 359.073C105.802 362.573 96.676 360.323 92.2524 354.048V354.048Z" fill="#E597FF" fill-opacity="0.97"/>
<path d="M81.7408 289.618C77.3172 283.343 79.2707 275.419 86.104 271.92L248.448 188.783C255.282 185.283 264.407 187.533 268.831 193.808V193.808C273.254 200.082 271.301 208.006 264.468 211.505L102.123 294.643C95.29 298.142 86.1644 295.892 81.7408 289.618V289.618Z" fill="#2FEE92" fill-opacity="0.77"/>
<path opacity="0.61" d="M74.7667 309.5C70.3431 303.226 72.2966 295.302 79.1299 291.803L224.84 217.184C231.673 213.684 240.799 215.934 245.222 222.209V222.209C249.646 228.483 247.693 236.407 240.859 239.906L95.1492 314.525C88.3159 318.025 79.1904 315.775 74.7667 309.5V309.5Z" fill="#BA00D9"/>
<path d="M146.818 303.31C142.395 297.036 144.348 289.112 151.181 285.613L312.251 203.128C319.085 199.628 328.21 201.878 332.634 208.153V208.153C337.057 214.428 335.104 222.351 328.271 225.85L167.201 308.335C160.367 311.835 151.242 309.585 146.818 303.31V303.31Z" fill="#E597FF" fill-opacity="0.72"/>
<path opacity="0.88" d="M79.9102 331.297C75.7048 325.331 77.5619 317.799 84.0581 314.472L178.705 266.003C185.202 262.676 193.877 264.815 198.082 270.78V270.78C202.288 276.745 200.431 284.278 193.934 287.604L99.2873 336.074C92.791 339.401 84.1156 337.262 79.9102 331.297V331.297Z" fill="#2FEE92"/>
<path opacity="0.61" d="M74.5866 332.259C70.163 325.984 72.1164 318.061 78.9497 314.561L300.113 201.302C306.947 197.803 316.072 200.052 320.496 206.327V206.327C324.919 212.602 322.966 220.525 316.133 224.024L94.969 337.284C88.1357 340.783 79.0102 338.533 74.5866 332.259V332.259Z" fill="#BA00D9"/>
<path opacity="0.87" d="M80.6665 367.758C76.2429 361.483 78.1963 353.56 85.0296 350.061L256.9 262.045C263.733 258.545 272.859 260.795 277.283 267.07V267.07C281.706 273.344 279.753 281.268 272.919 284.767L101.049 372.783C94.2157 376.283 85.0901 374.033 80.6665 367.758V367.758Z" fill="#BA00D9"/>
<path opacity="0.88" d="M333.939 124.182C338.233 130.521 336.145 138.401 329.275 141.782L89.7599 259.64C82.8895 263.02 73.8386 260.622 69.5442 254.282V254.282C65.2497 247.943 67.3379 240.063 74.2083 236.682L313.723 118.824C320.594 115.444 329.645 117.842 333.939 124.182V124.182Z" fill="white" fill-opacity="0.87"/>
<path opacity="0.61" d="M139.321 174.772C143.615 181.112 141.527 188.991 134.657 192.372L83.4577 217.565C76.5873 220.946 67.5364 218.548 63.2419 212.208V212.208C58.9475 205.869 61.0357 197.989 67.9061 194.608L119.105 169.415C125.975 166.034 135.026 168.433 139.321 174.772V174.772Z" fill="#E597FF" fill-opacity="0.97"/>
<path opacity="0.61" d="M323.439 107.893C327.733 114.233 325.645 122.112 318.774 125.493L91.9373 237.113C85.0669 240.493 76.016 238.095 71.7215 231.755V231.755C67.4271 225.416 69.5153 217.536 76.3857 214.155L303.223 102.536C310.093 99.1551 319.144 101.554 323.439 107.893V107.893Z" fill="#BA00D9"/>
<path d="M206.857 88.8775C211.423 95.6185 209.203 103.997 201.897 107.592L74.785 170.14C67.4794 173.735 57.8553 171.185 53.2888 164.444V164.444C48.7224 157.703 50.9429 149.324 58.2484 145.729L185.361 83.1808C192.666 79.586 202.291 82.1365 206.857 88.8775V88.8775Z" fill="white" fill-opacity="0.87"/>
<path d="M298.895 9.62189C302.494 14.9359 300.744 21.5411 294.985 24.3749L162.272 89.6787C156.513 92.5126 148.926 90.502 145.326 85.188V85.188C141.727 79.874 143.477 73.2688 149.236 70.435L281.949 5.13113C287.708 2.29728 295.295 4.30786 298.895 9.62189V9.62189Z" fill="#BA00D9"/>
<path d="M189.258 49.7654C193.552 56.1049 191.464 63.9847 184.594 67.3654L61.8283 127.774C54.9579 131.155 45.907 128.757 41.6125 122.417V122.417C37.3181 116.078 39.4063 108.198 46.2767 104.817L169.042 44.408C175.913 41.0273 184.963 43.4259 189.258 49.7654V49.7654Z" fill="#C802CC" fill-opacity="0.64"/>
<path opacity="0.88" d="M7.60469 396.191C3.40474 390.221 5.26445 382.68 11.7585 379.347L313.847 224.323C320.341 220.991 329.011 223.129 333.21 229.099V229.099C337.41 235.068 335.551 242.609 329.057 245.942L26.9679 400.966C20.4738 404.298 11.8046 402.16 7.60469 396.191V396.191Z" fill="white"/>
<path opacity="0.82" d="M142.703 50.6303C146.998 56.9698 144.91 64.8496 138.039 68.2303L50.0435 111.53C43.1731 114.911 34.1221 112.512 29.8277 106.173V106.173C25.5332 99.8334 27.6215 91.9536 34.4919 88.5729L122.488 45.2729C129.358 41.8922 138.409 44.2908 142.703 50.6303V50.6303Z" fill="#2FEE92"/>
<path opacity="0.88" d="M104.609 382.295C100.818 376.914 102.494 370.12 108.353 367.119L326.425 255.437C332.284 252.436 340.108 254.366 343.899 259.747V259.747C347.69 265.128 346.014 271.923 340.155 274.924L122.083 386.606C116.224 389.606 108.4 387.677 104.609 382.295V382.295Z" fill="white"/>
<path d="M49.5281 296.097C45.3425 290.16 47.1382 282.664 53.5557 279.285L327.781 134.903C334.303 131.469 343.105 133.593 347.359 139.627V139.627C351.545 145.564 349.749 153.06 343.331 156.439L69.1058 300.821C62.5837 304.255 53.7821 302.131 49.5281 296.097V296.097Z" fill="#BA00D9"/>
<path d="M173.002 212.129C168.578 205.854 170.531 197.931 177.365 194.431L321.249 120.747C328.083 117.248 337.208 119.498 341.632 125.772V125.772C346.055 132.047 344.102 139.97 337.269 143.47L193.384 217.154C186.551 220.653 177.425 218.403 173.002 212.129V212.129Z" fill="#E597FF" fill-opacity="0.5"/>
<path opacity="0.72" d="M333.762 74.635C338.056 80.9745 335.968 88.8543 329.098 92.235L84.521 212.584C77.6506 215.964 68.5997 213.566 64.3052 207.226V207.226C60.0108 200.887 62.099 193.007 68.9694 189.626L313.546 69.2777C320.417 65.8969 329.468 68.2955 333.762 74.635V74.635Z" fill="#BA00D9"/>
<path d="M331.667 57.888C335.961 64.2275 333.873 72.1073 327.002 75.488L100.287 187.048C93.4167 190.428 84.3658 188.03 80.0713 181.69V181.69C75.7769 175.351 77.8651 167.471 84.7355 164.09L311.451 52.5307C318.321 49.15 327.372 51.5485 331.667 57.888V57.888Z" fill="#C802CC" fill-opacity="0.64"/>
<path d="M181.181 254.714C176.757 248.44 178.711 240.516 185.544 237.017L337.608 159.144C344.441 155.645 353.567 157.895 357.99 164.169V164.169C362.414 170.444 360.46 178.367 353.627 181.867L201.564 259.739C194.73 263.239 185.605 260.989 181.181 254.714V254.714Z" fill="#E597FF" fill-opacity="0.97"/>
</svg>
