<svg width="938" height="1049" viewBox="0 0 938 1049" fill="none" xmlns="http://www.w3.org/2000/svg">
<g filter="url(#filter0_d)">
<path d="M51.5994 813.468C47.3651 805.625 50.1993 795.933 57.9793 791.639L416.198 594.08C424.221 589.656 434.409 592.665 438.776 600.75L454.676 630.191C458.911 638.031 456.076 647.727 448.296 652.018L90.078 849.577C82.055 854.005 71.8667 850.993 67.5003 842.907L51.5994 813.468Z" fill="#BA00D9"/>
<path d="M6.16661 969.353C1.73241 961.63 4.31633 951.863 11.983 947.37L365.004 740.58C372.91 735.948 383.172 738.692 387.745 746.664L404.397 775.68C408.832 783.408 406.248 793.175 398.581 797.668L45.5604 1004.46C37.6542 1009.09 27.3917 1006.34 22.819 998.374L6.16661 969.353Z" fill="#BA00D9"/>
<path opacity="0.77" d="M439.374 933.459C434.666 925.73 437.145 915.74 444.912 911.138L759.623 724.75C767.391 720.153 777.505 722.683 782.214 730.406L801.294 761.709C806.003 769.432 803.524 779.422 795.756 784.025L481.044 970.412C473.277 975.014 463.163 972.48 458.454 964.756L439.374 933.459Z" fill="#BA00D9"/>
<path d="M512.974 925.993C508.264 918.27 510.744 908.275 518.511 903.677L753.797 764.328C761.564 759.726 771.678 762.26 776.387 769.984L795.467 801.286C800.176 809.01 797.697 819 789.929 823.602L554.644 962.952C546.877 967.549 536.762 965.014 532.053 957.291L512.974 925.993Z" fill="#2FEE92"/>
<path opacity="0.61" d="M322.774 901.977C318.065 894.254 320.544 884.259 328.311 879.661L580.889 730.068C588.656 725.471 598.771 728.001 603.479 735.729L622.559 767.027C627.268 774.75 624.789 784.745 617.021 789.343L364.444 938.936C356.676 943.533 346.562 940.998 341.853 933.275L322.774 901.977Z" fill="#E597FF" fill-opacity="0.97"/>
<path d="M299.064 733.905C294.355 726.182 296.834 716.189 304.602 711.589L698.466 478.321C706.234 473.721 716.348 476.253 721.057 483.978L740.137 515.277C744.845 523.003 742.366 532.994 734.599 537.594L340.734 770.864C332.967 775.461 322.853 772.931 318.144 765.203L299.064 733.905Z" fill="#2FEE92" fill-opacity="0.77"/>
<path opacity="0.61" d="M283.334 785.769C278.625 778.046 281.104 768.055 288.871 763.453L645.217 552.407C652.984 547.807 663.098 550.34 667.807 558.065L686.887 589.364C691.596 597.089 689.116 607.08 681.349 611.68L325.004 822.728C317.236 827.325 307.122 824.795 302.413 817.071L283.334 785.769Z" fill="#BA00D9"/>
<path d="M445.85 769.621C441.141 761.897 443.62 751.907 451.388 747.305L766.099 560.918C773.867 556.317 783.98 558.851 788.69 566.575L807.769 597.875C812.478 605.599 809.999 615.591 802.232 620.191L487.52 806.579C479.753 811.182 469.639 808.647 464.93 800.923L445.85 769.621Z" fill="#E597FF" fill-opacity="0.72"/>
<path opacity="0.61" d="M282.927 845.138C278.218 837.414 280.698 827.419 288.465 822.822L754.462 546.832C762.229 542.232 772.344 544.765 777.053 552.49L796.132 583.788C800.842 591.514 798.362 601.505 790.595 606.105L324.598 882.091C316.83 886.694 306.716 884.159 302.007 876.435L282.927 845.138Z" fill="#BA00D9"/>
<path opacity="0.88" d="M299.28 852.575C294.571 844.851 297.05 834.861 304.817 830.259L347.472 804.995C355.239 800.398 365.353 802.928 370.062 810.656L387.359 839.031C392.068 846.755 389.589 856.745 381.822 861.348L339.167 886.606C331.4 891.208 321.286 888.674 316.577 880.95L299.28 852.575Z" fill="#2FEE92"/>
<path opacity="0.87" d="M296.641 937.743C291.932 930.014 294.411 920.024 302.179 915.422L717.53 669.43C725.298 664.83 735.411 667.363 740.121 675.088L759.2 706.387C763.91 714.112 761.43 724.104 753.663 728.701L338.311 974.696C330.544 979.299 320.43 976.764 315.721 969.04L296.641 937.743Z" fill="#BA00D9"/>
<path d="M615.214 590.334C610.505 582.609 612.984 572.618 620.752 568.017L889.609 408.787C897.376 404.187 907.488 406.72 912.198 414.444L931.279 445.744C935.984 453.468 933.506 463.46 925.738 468.06L656.884 627.291C649.117 631.891 639.003 629.358 634.294 621.633L615.214 590.334Z" fill="#E597FF" fill-opacity="0.97"/>
<path d="M227.332 752.325C222.663 744.666 225.055 734.765 232.698 730.113L876.162 338.302C883.934 333.567 894.17 336.065 898.92 343.856L916.339 372.426C921.004 380.084 918.614 389.986 910.971 394.639L267.509 786.45C259.733 791.182 249.497 788.687 244.747 780.893L227.332 752.325Z" fill="#BA00D9"/>
<path d="M465.358 1004.07C460.721 996.466 463.046 986.63 470.592 981.938L818.027 765.814C825.809 760.973 836.139 763.443 840.923 771.286L858.332 799.85C862.973 807.459 860.648 817.29 853.098 821.982L505.665 1038.11C497.884 1042.95 487.552 1040.48 482.771 1032.63L465.358 1004.07Z" fill="#BA00D9"/>
<path opacity="0.88" d="M517.219 544.082C521.793 551.889 519.139 561.837 511.294 566.302L312.838 679.24C304.992 683.704 294.925 680.995 290.353 673.187L271.835 641.573C267.262 633.766 269.915 623.818 277.76 619.354L476.217 506.416C484.062 501.951 494.129 504.661 498.702 512.468L517.219 544.082Z" fill="white" fill-opacity="0.87"/>
<path d="M269.182 671.38C264.473 663.655 266.952 653.664 274.72 649.063L606.279 452.696C614.047 448.096 624.161 450.628 628.87 458.354L647.95 489.653C652.659 497.378 650.18 507.369 642.412 511.969L310.852 708.337C303.085 712.937 292.971 710.404 288.262 702.679L269.182 671.38Z" fill="#E597FF" fill-opacity="0.5"/>
<path opacity="0.88" d="M805.395 378.121C809.968 385.929 807.315 395.876 799.47 400.341L601.013 513.279C593.168 517.744 583.101 515.034 578.528 507.227L560.01 475.613C555.438 467.806 558.09 457.858 565.936 453.393L764.392 340.455C772.238 335.991 782.304 338.7 786.878 346.507L805.395 378.121Z" fill="white"/>
<path opacity="0.61" d="M559.744 402.039C564.317 409.846 561.664 419.794 553.819 424.259L298.623 569.486C290.777 573.951 280.711 571.241 276.138 563.434L257.62 531.82C253.047 524.012 255.7 514.065 263.545 509.6L518.742 364.373C526.587 359.908 536.654 362.617 541.226 370.425L559.744 402.039Z" fill="#E597FF" fill-opacity="0.97"/>
<path d="M518.085 227.055C522.658 234.862 520.005 244.81 512.16 249.274L238.365 405.086C230.52 409.55 220.453 406.841 215.88 399.034L197.362 367.42C192.789 359.612 195.442 349.665 203.287 345.2L477.082 189.389C484.928 184.924 494.994 187.633 499.568 195.44L518.085 227.055Z" fill="#2FEE92"/>
<path opacity="0.61" d="M824.533 313.226C829.109 321.033 826.457 330.982 818.611 335.446L500.637 516.398C492.792 520.862 482.725 518.153 478.153 510.346L459.635 478.731C455.062 470.925 457.715 460.976 465.56 456.512L783.532 275.56C791.378 271.096 801.444 273.805 806.017 281.612L824.533 313.226Z" fill="#BA00D9"/>
<path d="M601.181 243.614C605.754 251.421 603.101 261.369 595.256 265.834L277.284 446.785C269.439 451.25 259.371 448.54 254.799 440.733L234.059 405.326C229.486 397.519 232.139 387.571 239.984 383.106L557.957 202.155C565.802 197.69 575.868 200.4 580.442 208.207L601.181 243.614Z" fill="white" fill-opacity="0.87"/>
<path d="M720.222 252.708C724.795 260.515 722.142 270.463 714.297 274.928L336.582 489.878C328.737 494.342 318.67 491.633 314.097 483.826L295.579 452.212C291.007 444.404 293.659 434.457 301.505 429.992L679.219 215.042C687.065 210.578 697.131 213.287 701.704 221.094L720.222 252.708Z" fill="#C802CC" fill-opacity="0.64"/>
<path opacity="0.72" d="M824.36 239.821C828.931 247.628 826.279 257.576 818.433 262.041L563.238 407.268C555.392 411.732 545.325 409.023 540.752 401.216L522.234 369.602C517.662 361.795 520.314 351.846 528.16 347.382L783.356 202.155C791.202 197.69 801.268 200.4 805.841 208.207L824.36 239.821Z" fill="#BA00D9"/>
<path opacity="0.68" d="M739.358 347.939C743.932 355.746 741.278 365.694 733.433 370.158L269.745 634.034C261.899 638.499 251.833 635.789 247.26 627.982L228.742 596.368C224.169 588.561 226.822 578.613 234.667 574.148L698.356 310.272C706.201 305.808 716.268 308.517 720.841 316.324L739.358 347.939Z" fill="#BA00D9"/>
<path d="M811.723 41.8977C816.296 49.7049 813.643 59.6527 805.797 64.1174L487.825 245.069C479.98 249.534 469.913 246.824 465.34 239.017L445.604 205.322C441.031 197.515 443.684 187.567 451.529 183.103L769.501 2.15106C777.346 -2.31366 787.413 0.396086 791.986 8.20277L811.723 41.8977Z" fill="#BA00D9"/>
<path d="M560.375 139.691C564.947 147.498 562.295 157.446 554.449 161.91L249.836 335.259C241.991 339.724 231.924 337.014 227.351 329.208L208.834 297.593C204.261 289.786 206.914 279.838 214.759 275.374L519.372 102.025C527.217 97.5599 537.284 100.27 541.857 108.076L560.375 139.691Z" fill="#C802CC" fill-opacity="0.64"/>
<path opacity="0.88" d="M687.615 684.733C682.907 677.007 685.386 667.016 693.153 662.416L745.975 631.132C753.742 626.532 763.857 629.064 768.566 636.789L785.863 665.165C790.572 672.89 788.093 682.881 780.325 687.481L727.503 718.766C719.736 723.363 709.622 720.834 704.913 713.108L687.615 684.733Z" fill="white"/>
<path opacity="0.9" d="M766.209 191.948C770.782 199.755 768.129 209.703 760.284 214.167L505.008 359.44C497.162 363.905 487.095 361.195 482.522 353.388L464.004 321.774C459.432 313.967 462.084 304.019 469.93 299.554L725.206 154.281C733.052 149.817 743.118 152.526 747.691 160.333L766.209 191.948Z" fill="#2FEE92"/>
<path opacity="0.82" d="M455.368 141.947C459.941 149.754 457.288 159.702 449.442 164.166L223.255 292.886C215.41 297.35 205.342 294.64 200.77 286.833L182.252 255.219C177.679 247.412 180.332 237.464 188.177 232.999L414.365 104.281C422.21 99.8159 432.277 102.526 436.85 110.332L455.368 141.947Z" fill="#2FEE92"/>
<path d="M847.023 94.0733C851.599 101.88 848.943 111.828 841.101 116.293L585.903 261.52C578.058 265.985 567.991 263.275 563.418 255.468L544.9 223.854C540.327 216.047 542.98 206.099 550.826 201.634L806.022 56.4072C813.867 51.9424 823.934 54.6522 828.506 62.4589L847.023 94.0733Z" fill="#E597FF" fill-opacity="0.97"/>
</g>
<defs>
<filter id="filter0_d" x="0" y="0" width="937.662" height="1048.59" filterUnits="userSpaceOnUse" color-interpolation-filters="sRGB">
<feFlood flood-opacity="0" result="BackgroundImageFix"/>
<feColorMatrix in="SourceAlpha" type="matrix" values="0 0 0 0 0 0 0 0 0 0 0 0 0 0 0 0 0 0 127 0"/>
<feOffset dy="4"/>
<feGaussianBlur stdDeviation="2"/>
<feColorMatrix type="matrix" values="0 0 0 0 0 0 0 0 0 0 0 0 0 0 0 0 0 0 0.25 0"/>
<feBlend mode="normal" in2="BackgroundImageFix" result="effect1_dropShadow"/>
<feBlend mode="normal" in="SourceGraphic" in2="effect1_dropShadow" result="shape"/>
</filter>
</defs>
</svg>
