<svg width="94" height="94" viewBox="0 0 94 94" fill="none" xmlns="http://www.w3.org/2000/svg">
<path d="M87.437 37.916C87.437 57.4905 69.0007 73.8319 45.6311 73.8319C22.2616 73.8319 3.82532 57.4905 3.82532 37.916C3.82532 18.3415 22.2616 2 45.6311 2C69.0007 2 87.437 18.3415 87.437 37.916Z" fill="white" stroke="url(#paint0_linear)" stroke-width="4"/>
<path d="M54.2824 54.0576C48.9957 52.0757 29.3259 37.2 38.1355 42.0325C38.6054 42.2903 39.0501 42.4939 39.4719 42.648C52.268 47.3232 65.3793 31.3418 71.2438 21.0725C71.5049 20.6153 71.4013 20.3033 70.8164 20.2063C60.9026 18.5625 55.4418 28.8167 56.0444 36.9403C56.6882 45.6171 57.467 55.2515 54.2824 54.0576Z" fill="url(#paint1_radial)" fill-opacity="0.77"/>
<path d="M65.0014 46.0023C65.0014 52.5829 59.5186 67.185 46.6658 67.185C33.8128 67.185 27.7843 52.5829 27.7843 46.0023C27.7843 39.4216 27.7843 43.7958 46.6658 55.2697C65.5472 66.7437 65.0014 39.4216 65.0014 46.0023Z" fill="url(#paint2_linear)"/>
<path d="M38.9397 92.8319H36.5597L31.1707 84.6889V92.8319H28.7907V80.9489H31.1707L36.5597 89.1089V80.9489H38.9397V92.8319ZM50.0467 87.9189C50.0467 88.2589 50.024 88.5649 49.9787 88.8369H43.0937C43.1503 89.5169 43.3883 90.0496 43.8077 90.4349C44.227 90.8203 44.7427 91.0129 45.3547 91.0129C46.2387 91.0129 46.8677 90.6333 47.2417 89.8739H49.8087C49.5367 90.7806 49.0153 91.5286 48.2447 92.1179C47.474 92.6959 46.5277 92.9849 45.4057 92.9849C44.499 92.9849 43.683 92.7866 42.9577 92.3899C42.2437 91.9819 41.6827 91.4096 41.2747 90.6729C40.878 89.9363 40.6797 89.0863 40.6797 88.1229C40.6797 87.1483 40.878 86.2926 41.2747 85.5559C41.6713 84.8193 42.2267 84.2526 42.9407 83.8559C43.6547 83.4593 44.4763 83.2609 45.4057 83.2609C46.301 83.2609 47.1 83.4536 47.8027 83.8389C48.5167 84.2243 49.0663 84.7739 49.4517 85.4879C49.8483 86.1906 50.0467 87.0009 50.0467 87.9189ZM47.5817 87.2389C47.5703 86.6269 47.3493 86.1396 46.9187 85.7769C46.488 85.4029 45.961 85.2159 45.3377 85.2159C44.7483 85.2159 44.2497 85.3973 43.8417 85.7599C43.445 86.1113 43.2013 86.6043 43.1107 87.2389H47.5817ZM56.9858 92.8319L55.0478 89.9079L53.3308 92.8319H50.7808L53.8578 88.1059L50.7468 83.4139H53.4328L55.3538 86.3209L57.0878 83.4139H59.6378L56.5438 88.1059L59.6718 92.8319H56.9858ZM63.7355 85.3689V89.9249C63.7355 90.2423 63.8092 90.4746 63.9565 90.6219C64.1152 90.7579 64.3758 90.8259 64.7385 90.8259H65.8435V92.8319H64.3475C62.3415 92.8319 61.3385 91.8573 61.3385 89.9079V85.3689H60.2165V83.4139H61.3385V81.0849H63.7355V83.4139H65.8435V85.3689H63.7355Z" fill="#BA00D9" fill-opacity="0.72"/>
<defs>
<linearGradient id="paint0_linear" x1="45.6311" y1="0" x2="45.6311" y2="75.8319" gradientUnits="userSpaceOnUse">
<stop stop-color="#2FEE92"/>
<stop offset="1" stop-color="#BA00D9"/>
</linearGradient>
<radialGradient id="paint1_radial" cx="0" cy="0" r="1" gradientUnits="userSpaceOnUse" gradientTransform="translate(56.7907 7.51651) rotate(157.516) scale(1.44852e-06)">
<stop stop-color="#BA00D9"/>
<stop offset="1" stop-color="#2FEE92"/>
</radialGradient>
<linearGradient id="paint2_linear" x1="46.3937" y1="42.9238" x2="46.3937" y2="67.185" gradientUnits="userSpaceOnUse">
<stop stop-color="#2FEE92"/>
<stop offset="1" stop-color="#BA00D9" stop-opacity="0.72"/>
</linearGradient>
</defs>
</svg>
